{"title":"Tormented 2009 720p BRRip x264 Feel-Free","uid":6193179,"size":2427241231,"categoryP":"video","categoryS":"hd___movies","magnet":"?xt=urn:btih:c9d10a862816b9723a247e4898de1709f7a62cb4&amp;dn=Tormented+2009+720p+BRRip+x264+Feel-Free&amp;tr=udp%3A%2F%2Ftracker.openbittorrent.com%3A80&amp;tr=udp%3A%2F%2Fopen.demonii.com%3A1337&amp;tr=udp%3A%2F%2Ftracker.coppersurfer.tk%3A6969&amp;tr=udp%3A%2F%2Fexodus.desync.com%3A6969","seeders":5,"leechers":1,"uploader":"neon","files":9,"time":1298365455,"description":"\nGenre:Comedy | Horror\nLanguage:English\n &lt;a href=&quot; http://www.imdb.com/title/tt1100053/&quot; rel=&quot;nofollow&quot; target=&quot;_NEW&quot;&gt; http://www.imdb.com/title/tt1100053/&lt;/a&gt;\nSource:BluRay DTS x264-DON\n\n\nFormat : MPEG-4\nFormat profile : Base Media\nCodec ID : isom\nFile size : 2.26 GiB\nDuration : 1h 31mn\nOverall bit rate : 3 539 Kbps\n\n\nVideo\nFormat settings, CABAC : Yes\nFormat settings, ReFrames : 3 frames\nCodec ID : avc1\nCodec ID/Info : Advanced Video Coding\nDuration : 1h 31mn\nBit rate mode : Variable\nBit rate : 2 999 Kbps\nMaximum bit rate : 19.9 Mbps\nWidth : 1 280 pixels\nHeight : 544 pixels\nDisplay aspect ratio : 2.35:1\nFrame rate mode : Constant\nFrame rate : 23.976 fps\nColor space : YUV\nChroma subsampling : 4:2:0\nBit depth : 8 bits\nScan type : Progressive\nBits/(Pixel*Frame) : 0.180\nStream size : 1.93 GiB (86%)\nWriting library : x264\n\n\nAudio\nID : 2\nFormat : AAC\nFormat/Info : Advanced Audio Codec\nFormat version : Version 4\nFormat profile : LC\nFormat settings, SBR : No\nCodec ID : 40\nDuration : 1h 31mn\nBit rate mode : Variable\nBit rate : 509 Kbps\nMaximum bit rate : 615 Kbps\nChannel(s) : 6 channels\nChannel positions : Front: L C R, Side: L R, LFE\nSampling rate : 48.0 KHz\nStream size : 332 MiB (14%)\n\n\nPlot:\nA bullied teenager comes back from the dead to take revenge on his classmates.\n\n","torrent":{"xt":"urn:btih:c9d10a862816b9723a247e4898de1709f7a62cb4","amp;dn":"Tormented+2009+720p+BRRip+x264+Feel-Free","amp;tr":["udp%3A%2F%2Ftracker.openbittorrent.com%3A80","udp%3A%2F%2Fopen.demonii.com%3A1337","udp%3A%2F%2Ftracker.coppersurfer.tk%3A6969","udp%3A%2F%2Fexodus.desync.com%3A6969"],"infoHash":"c9d10a862816b9723a247e4898de1709f7a62cb4","infoHashBuffer":{"type":"Buffer","data":[201,209,10,134,40,22,185,114,58,36,126,72,152,222,23,9,247,166,44,180]},"announce":[],"urlList":[]}}